<mxfile host="app.diagrams.net" agent="Mozilla/5.0 (Windows NT 10.0; Win64; x64) AppleWebKit/537.36 (KHTML, like Gecko) Chrome/130.0.0.0 Safari/537.36" version="24.8.3">
  <diagram name="Page-1" id="F0fasmUh6SGgNUhUhgU0">
    <mxGraphModel dx="1075" dy="464" grid="1" gridSize="10" guides="1" tooltips="1" connect="1" arrows="1" fold="1" page="1" pageScale="1" pageWidth="827" pageHeight="1169" math="0" shadow="0">
      <root>
        <mxCell id="0" />
        <mxCell id="1" parent="0" />
        <mxCell id="GsjyTg_L3I_LuEx6uoWe-1" value="Employee" style="swimlane;fontStyle=1;align=center;verticalAlign=top;childLayout=stackLayout;horizontal=1;startSize=26;horizontalStack=0;resizeParent=1;resizeParentMax=0;resizeLast=0;collapsible=1;marginBottom=0;whiteSpace=wrap;html=1;" vertex="1" parent="1">
          <mxGeometry x="260" y="210" width="210" height="260" as="geometry" />
        </mxCell>
        <mxCell id="GsjyTg_L3I_LuEx6uoWe-2" value="-Firstname : String&lt;div&gt;-Lastname : String&lt;/div&gt;&lt;div&gt;-monthlysalary : double&lt;/div&gt;&lt;div&gt;&lt;br&gt;&lt;/div&gt;" style="text;strokeColor=none;fillColor=none;align=left;verticalAlign=top;spacingLeft=4;spacingRight=4;overflow=hidden;rotatable=0;points=[[0,0.5],[1,0.5]];portConstraint=eastwest;whiteSpace=wrap;html=1;" vertex="1" parent="GsjyTg_L3I_LuEx6uoWe-1">
          <mxGeometry y="26" width="210" height="64" as="geometry" />
        </mxCell>
        <mxCell id="GsjyTg_L3I_LuEx6uoWe-3" value="" style="line;strokeWidth=1;fillColor=none;align=left;verticalAlign=middle;spacingTop=-1;spacingLeft=3;spacingRight=3;rotatable=0;labelPosition=right;points=[];portConstraint=eastwest;strokeColor=inherit;" vertex="1" parent="GsjyTg_L3I_LuEx6uoWe-1">
          <mxGeometry y="90" width="210" height="8" as="geometry" />
        </mxCell>
        <mxCell id="GsjyTg_L3I_LuEx6uoWe-4" value="+setFirstname (String) : void&lt;div&gt;+setLastname (String) : void&lt;/div&gt;&lt;div&gt;&lt;div&gt;&lt;div&gt;+setmonthlysalary (double) : void&lt;/div&gt;&lt;div&gt;&lt;div&gt;+getfirstname () : String&lt;/div&gt;&lt;div&gt;&lt;div&gt;+getLastname () : String&lt;/div&gt;&lt;div&gt;&lt;div&gt;+getmonthlysalary () : double&lt;/div&gt;&lt;div&gt;+employee (String)&lt;/div&gt;&lt;div&gt;+employee (String)&lt;/div&gt;&lt;div&gt;+employee (double)&lt;/div&gt;&lt;div&gt;+getyearlysalary () : double&lt;/div&gt;&lt;div&gt;&lt;br&gt;&lt;/div&gt;&lt;div&gt;&lt;br&gt;&lt;/div&gt;&lt;div&gt;&lt;br&gt;&lt;/div&gt;&lt;div&gt;&lt;br&gt;&lt;/div&gt;&lt;/div&gt;&lt;div&gt;&lt;br&gt;&lt;/div&gt;&lt;/div&gt;&lt;div&gt;&lt;br&gt;&lt;/div&gt;&lt;/div&gt;&lt;div&gt;&lt;br&gt;&lt;/div&gt;&lt;/div&gt;&lt;/div&gt;" style="text;strokeColor=none;fillColor=none;align=left;verticalAlign=top;spacingLeft=4;spacingRight=4;overflow=hidden;rotatable=0;points=[[0,0.5],[1,0.5]];portConstraint=eastwest;whiteSpace=wrap;html=1;" vertex="1" parent="GsjyTg_L3I_LuEx6uoWe-1">
          <mxGeometry y="98" width="210" height="162" as="geometry" />
        </mxCell>
      </root>
    </mxGraphModel>
  </diagram>
</mxfile>
